<svg width="19" height="18" viewBox="0 0 19 18" fill="none" xmlns="http://www.w3.org/2000/svg">
<g id="Like" clip-path="url(#clip0_4340_19821)">
<path id="Vector" d="M5.75781 14.2916L8.34115 16.2916C8.67448 16.6249 9.42448 16.7916 9.92448 16.7916H13.0911C14.0911 16.7916 15.1745 16.0416 15.4245 15.0416L17.4245 8.95822C17.8411 7.79156 17.0911 6.79156 15.8411 6.79156H12.5078C12.0078 6.79156 11.5911 6.37489 11.6745 5.79156L12.0911 3.12489C12.2578 2.37489 11.7578 1.54156 11.0078 1.29156C10.3411 1.04156 9.50781 1.37489 9.17448 1.87489L5.75781 6.95822" stroke="#323232" stroke-miterlimit="10"/>
<path id="Vector_2" d="M1.50781 14.2915V6.12484C1.50781 4.95817 2.00781 4.5415 3.17448 4.5415H4.00781C5.17448 4.5415 5.67448 4.95817 5.67448 6.12484V14.2915C5.67448 15.4582 5.17448 15.8748 4.00781 15.8748H3.17448C2.00781 15.8748 1.50781 15.4582 1.50781 14.2915Z" stroke="#323232" stroke-linecap="round" stroke-linejoin="round"/>
</g>
<defs>
<clipPath id="clip0_4340_19821">
<rect width="18" height="18" fill="white" transform="translate(0.524414)"/>
</clipPath>
</defs>
</svg>
