<svg width="19" height="18" viewBox="0 0 19 18" fill="none" xmlns="http://www.w3.org/2000/svg">
<g id="Dislike" clip-path="url(#clip0_4340_19826)">
<path id="Vector" d="M13.373 3.70844L10.7897 1.70844C10.4564 1.37511 9.70638 1.20844 9.20638 1.20844L6.03971 1.20844C5.03971 1.20844 3.95638 1.95844 3.70638 2.95844L1.70638 9.04177C1.28972 10.2084 2.03971 11.2084 3.28971 11.2084L6.62305 11.2084C7.12305 11.2084 7.53971 11.6251 7.45638 12.2084L7.03971 14.8751C6.87305 15.6251 7.37305 16.4584 8.12305 16.7084C8.78971 16.9584 9.62305 16.6251 9.95638 16.1251L13.373 11.0418" stroke="#323232" stroke-miterlimit="10"/>
<path id="Vector_2" d="M17.623 3.70849L17.623 11.8752C17.623 13.0418 17.123 13.4585 15.9564 13.4585L15.123 13.4585C13.9564 13.4585 13.4564 13.0418 13.4564 11.8752L13.4564 3.70849C13.4564 2.54183 13.9564 2.12516 15.123 2.12516L15.9564 2.12516C17.123 2.12516 17.623 2.54183 17.623 3.70849Z" stroke="#323232" stroke-linecap="round" stroke-linejoin="round"/>
</g>
<defs>
<clipPath id="clip0_4340_19826">
<rect width="18" height="18" fill="white" transform="translate(18.6064 18) rotate(-180)"/>
</clipPath>
</defs>
</svg>
