<svg width="18" height="18" viewBox="0 0 18 18" fill="none" xmlns="http://www.w3.org/2000/svg">
<g id="ion:checkbox" clip-path="url(#clip0_4340_19425)">
<path id="Vector" d="M14.625 0.819824H3.375C2.71218 0.820548 2.07672 1.08417 1.60803 1.55286C1.13935 2.02154 0.875724 2.65701 0.875 3.31982V14.5698C0.875724 15.2326 1.13935 15.8681 1.60803 16.3368C2.07672 16.8055 2.71218 17.0691 3.375 17.0698H14.625C15.2878 17.0691 15.9233 16.8055 16.392 16.3368C16.8607 15.8681 17.1243 15.2326 17.125 14.5698V3.31982C17.1243 2.65701 16.8607 2.02154 16.392 1.55286C15.9233 1.08417 15.2878 0.820548 14.625 0.819824ZM13.2285 6.22178L7.97852 12.4718C7.92093 12.5404 7.84927 12.5958 7.76839 12.6343C7.68752 12.6728 7.59932 12.6934 7.50977 12.6948H7.49922C7.41162 12.6948 7.325 12.6763 7.24499 12.6407C7.16497 12.605 7.09335 12.5529 7.03477 12.4878L4.78477 9.98779C4.72762 9.92719 4.68317 9.85577 4.65403 9.77774C4.62488 9.69971 4.61162 9.61664 4.61504 9.53341C4.61846 9.45018 4.63848 9.36848 4.67392 9.2931C4.70936 9.21772 4.75952 9.15018 4.82143 9.09446C4.88335 9.03874 4.95578 8.99596 5.03447 8.96864C5.11315 8.94131 5.19651 8.92998 5.27963 8.93533C5.36276 8.94068 5.44398 8.96259 5.51851 8.99977C5.59305 9.03695 5.6594 9.08866 5.71367 9.15186L7.48281 11.1175L12.2715 5.41787C12.3789 5.29368 12.5309 5.21675 12.6945 5.20371C12.8582 5.19067 13.0205 5.24256 13.1462 5.34817C13.2719 5.45378 13.351 5.60462 13.3664 5.7681C13.3818 5.93157 13.3323 6.09454 13.2285 6.22178Z" fill="#006EFF"/>
</g>
<defs>
<clipPath id="clip0_4340_19425">
<rect width="18" height="17" fill="white" transform="translate(0 0.722168)"/>
</clipPath>
</defs>
</svg>
