<svg width="18" height="17" viewBox="0 0 18 17" fill="none" xmlns="http://www.w3.org/2000/svg">
<path id="Vector" d="M16.6484 5.85622L11.5321 5.12625L9.245 0.574303C9.18253 0.449674 9.07976 0.348783 8.95282 0.287457C8.63443 0.133154 8.24754 0.26174 8.08835 0.574303L5.80125 5.12625L0.684995 5.85622C0.54394 5.87601 0.414976 5.94129 0.316237 6.0402C0.196868 6.16065 0.13109 6.32269 0.133357 6.49073C0.135625 6.65877 0.205751 6.81904 0.328328 6.93635L4.03001 10.4794L3.15547 15.4824C3.13496 15.5988 3.14808 15.7184 3.19333 15.8279C3.23859 15.9373 3.31418 16.0321 3.41152 16.1015C3.50886 16.1709 3.62406 16.2122 3.74407 16.2206C3.86407 16.229 3.98407 16.2042 4.09046 16.149L8.66667 13.787L13.2429 16.149C13.3678 16.2143 13.5129 16.2361 13.652 16.2123C14.0026 16.153 14.2383 15.8266 14.1779 15.4824L13.3033 10.4794L17.005 6.93635C17.1058 6.83941 17.1723 6.7128 17.1924 6.57433C17.2468 6.22813 17.001 5.90766 16.6484 5.85622Z" fill="#EEA651"/>
</svg>
