<svg width="16" height="16" viewBox="0 0 16 16" fill="none" xmlns="http://www.w3.org/2000/svg">
<path id="Vector" d="M15.4829 5.78193L10.6864 5.09758L8.54222 0.830127C8.48365 0.713287 8.38731 0.618702 8.26829 0.561209C7.96981 0.41655 7.6071 0.537099 7.45786 0.830127L5.3137 5.09758L0.517213 5.78193C0.384974 5.80047 0.26407 5.86167 0.171503 5.95441C0.0595945 6.06733 -0.0020722 6.21924 5.31712e-05 6.37678C0.00217854 6.53431 0.0679221 6.68457 0.182838 6.79454L3.65316 10.1161L2.83328 14.8064C2.81405 14.9156 2.82635 15.0278 2.86878 15.1304C2.91121 15.233 2.98207 15.3218 3.07333 15.3869C3.16459 15.452 3.27259 15.4906 3.38509 15.4985C3.4976 15.5064 3.6101 15.4831 3.70983 15.4314L8.00004 13.217L12.2902 15.4314C12.4074 15.4926 12.5434 15.513 12.6737 15.4908C13.0024 15.4352 13.2235 15.1291 13.1668 14.8064L12.3469 10.1161L15.8172 6.79454C15.9117 6.70367 15.974 6.58497 15.9929 6.45515C16.0439 6.13059 15.8135 5.83015 15.4829 5.78193Z" fill="#EEA651"/>
</svg>
