<svg width="18" height="17" viewBox="0 0 18 17" fill="none" xmlns="http://www.w3.org/2000/svg">
<path id="Vector" d="M16.7153 5.85622L11.599 5.12625L9.31189 0.574303C9.24943 0.449674 9.14666 0.348783 9.01971 0.287457C8.70133 0.133154 8.31444 0.26174 8.15525 0.574303L5.86814 5.12625L0.751889 5.85622C0.610835 5.87601 0.48187 5.94129 0.383132 6.0402C0.263763 6.16065 0.197985 6.32269 0.200252 6.49073C0.202519 6.65877 0.272646 6.81904 0.395222 6.93635L4.0969 10.4794L3.22236 15.4824C3.20185 15.5988 3.21497 15.7184 3.26023 15.8279C3.30549 15.9373 3.38107 16.0321 3.47841 16.1015C3.57576 16.1709 3.69096 16.2122 3.81096 16.2206C3.93096 16.229 4.05096 16.2042 4.15735 16.149L8.73357 13.787L13.3098 16.149C13.4347 16.2143 13.5798 16.2361 13.7188 16.2123C14.0695 16.153 14.3052 15.8266 14.2448 15.4824L13.3702 10.4794L17.0719 6.93635C17.1727 6.83941 17.2392 6.7128 17.2593 6.57433C17.3137 6.22813 17.0679 5.90766 16.7153 5.85622Z" fill="#E2EBFF"/>
</svg>
